<svg xmlns:dc="http://purl.org/dc/elements/1.1/" xmlns:cc="http://creativecommons.org/ns#" xmlns:rdf="http://www.w3.org/1999/02/22-rdf-syntax-ns#" xmlns:svg="http://www.w3.org/2000/svg" xmlns="http://www.w3.org/2000/svg" xmlns:sodipodi="http://sodipodi.sourceforge.net/DTD/sodipodi-0.dtd" xmlns:inkscape="http://www.inkscape.org/namespaces/inkscape" version="1.1" x="0px" y="0px" viewBox="0 0 100 125"><g transform="translate(0,-952.36218)"><path style="color:#000000;enable-background:accumulate;" d="m 50,959.36219 c -17.12083,0 -31,13.87917 -31,31 0,17.12081 13.87917,31.00001 31,31.00001 17.12083,0 31,-13.8792 31,-31.00001 0,-17.12083 -13.87917,-31 -31,-31 z m -14,18 28,0 c 0.55228,0 1,0.4477 1,1 0,0.5523 -0.44772,1 -1,1 l -28,0 c -0.55228,0 -1,-0.4477 -1,-1 0,-0.5523 0.44772,-1 1,-1 z m -5,12 38,0 c 0.55228,0 1,0.4477 1,1 0,0.5523 -0.44772,1 -1,1 l -38,0 c -0.55228,0 -1,-0.4477 -1,-1 0,-0.5523 0.44772,-1 1,-1 z m 5,12.00001 28,0 c 0.55228,0 1,0.4477 1,1 0,0.5523 -0.44772,1 -1,1 l -28,0 c -0.55228,0 -1,-0.4477 -1,-1 0,-0.5523 0.44772,-1 1,-1 z M 23.6875,1010.2684 7,1034.3622 l 15,-3 4,14 14.90625,-23.2813 c -6.95322,-1.9905 -12.96286,-6.193 -17.21875,-11.8125 z m 52.625,0 c -4.25589,5.6195 -10.26553,9.822 -17.21875,11.8125 L 74,1045.3622 l 4,-14 15,3 -16.6875,-24.0938 z" fill="#000000" stroke="none" marker="none" visibility="visible" display="inline" overflow="visible"/></g><text x="0" y="115" fill="#000000" font-size="5px" font-weight="bold" font-family="'Helvetica Neue', Helvetica, Arial-Unicode, Arial, Sans-serif">Created by iconsphere</text><text x="0" y="120" fill="#000000" font-size="5px" font-weight="bold" font-family="'Helvetica Neue', Helvetica, Arial-Unicode, Arial, Sans-serif">from the Noun Project</text></svg>