<svg xmlns="http://www.w3.org/2000/svg" xmlns:xlink="http://www.w3.org/1999/xlink" version="1.1" x="0px" y="0px" viewBox="0 0 24 30" style="enable-background:new 0 0 24 24;" xml:space="preserve"><style type="text/css">
	.st0{display:none;}
	.st1{display:inline;}
	.st2{opacity:0.22;}
	.st3{opacity:0.33;fill:#010101;}
	.st4{opacity:0.1;fill:#010101;}
	.st5{fill:#010101;}
	.st6{display:inline;opacity:0.29;}
	.st7{display:inline;opacity:0.29;fill:#010101;}
	.st8{fill:none;}
</style><g class="st0"><g class="st1"><g><g><g><g class="st2"><rect x="0" class="st3" width="24" height="24"/></g></g><circle class="st4" cx="12" cy="12" r="10"/><path class="st4" d="M20,21H4c-0.5,0-1-0.5-1-1V4c0-0.5,0.5-1,1-1h16c0.5,0,1,0.5,1,1v16C21,20.5,20.5,21,20,21z"/><path class="st4" d="M18,22H6c-0.6,0-1-0.4-1-1V3c0-0.6,0.4-1,1-1h12c0.6,0,1,0.4,1,1v18C19,21.6,18.6,22,18,22z"/><path class="st4" d="M2,18L2,6c0-0.6,0.4-1,1-1l18,0c0.6,0,1,0.4,1,1l0,12c0,0.6-0.4,1-1,1L3,19C2.4,19,2,18.6,2,18z"/></g></g></g></g><path d="M18.8,16.2c-0.3,0.5-0.7,1-1.2,1.5c-3.1,3.1-8.2,3.1-11.3,0s-3.1-8.2,0-11.3c2.9-2.9,7.4-3.1,10.6-0.7l-1.4,1.4  c-2.3-1.7-5.6-1.5-7.7,0.6c-2.3,2.3-2.3,6.1,0,8.5s6.1,2.3,8.5,0c0.5-0.5,0.8-1,1.1-1.5l-1.5-1.5c-0.2,0.6-0.5,1.2-1,1.7  c-1.6,1.6-4.1,1.6-5.7,0c-1.6-1.6-1.6-4.1,0-5.7c1.3-1.3,3.3-1.5,4.9-0.6l-1.5,1.5c-0.7-0.2-1.4,0-1.9,0.5c-0.8,0.8-0.8,2.1,0,2.8  s2.1,0.8,2.8,0c0.5-0.5,0.7-1.3,0.5-1.9l0.1-0.1l0,0l5.8-5.8l-0.7-0.7C15.2,1,8.8,1,4.9,4.9S1,15.2,4.9,19.1  c3.9,3.9,10.2,3.9,14.1,0c0.5-0.5,0.8-0.9,1.2-1.4L18.8,16.2z"/><text x="0" y="39" fill="#000000" font-size="5px" font-weight="bold" font-family="'Helvetica Neue', Helvetica, Arial-Unicode, Arial, Sans-serif">Created by Kenneth Chua</text><text x="0" y="44" fill="#000000" font-size="5px" font-weight="bold" font-family="'Helvetica Neue', Helvetica, Arial-Unicode, Arial, Sans-serif">from the Noun Project</text></svg>